#!OML:ASF X:\für Bonn\!DataBase\2005_08_10_Bjorn_Final\c3d\bjorn.ASF
:FULLY-SPECIFIED
:DEGREES
704
root 0.290462 1.58746 20.3271 -275.08 -5.08528 -532.246
lowerback 4.313 -0.304065 -2.37784
upperback 3.00584 -0.599446 -1.94028
thorax 0.671146 -0.370978 -0.636321
lowerneck -15.5985 -4.70473 -2.08698
upperneck 10.8475 -6.64705 4.36414
head 6.05519 -3.04281 1.06636
rclavicle 1.51076e-014 -3.27498e-014
rhumerus -41.4336 23.3829 -77.6784
rradius 64.9748
rwrist 3.50393
rhand -7.05979 13.2304
rfingers 7.12502
rthumb 18.8133 -15.8798
lclavicle 1.51076e-014 -3.27498e-014
lhumerus -41.0269 -41.8651 83.4582
lradius 67.6723
lwrist -15.5446
lhand -36.0716 -371.454
lfingers 7.12502
lthumb -9.17894 18.3259
rfemur 9.68577 -15.6058 4.85029
rtibia 6.17492
rfoot 15.1071 -7.26496
rtoes 12.5619
lfemur -37.7235 -10.7825 -16.793
ltibia 80.4355
lfoot 16.1454 4.16395
ltoes -6.87001
705
root 0.28857 1.58566 20.3211 -275.107 -5.06944 -532.188
lowerback 4.32689 -0.331834 -2.37187
upperback 3.0332 -0.636598 -1.93856
thorax 0.691711 -0.390084 -0.636666
lowerneck -15.5176 -4.64145 -2.04647
upperneck 10.6753 -6.55567 4.33014
head 5.98141 -3.00166 1.06225
rclavicle -1.59028e-015 -1.59028e-015
rhumerus -41.4875 23.6062 -77.8927
rradius 65.3779
rwrist 3.24268
rhand -6.97189 13.2388
rfingers 7.12502
rthumb 18.8979 -15.8632
lclavicle -1.59028e-015 -1.59028e-015
lhumerus -41.0848 -41.98 83.5806
lradius 68.0503
lwrist -15.8116
lhand -35.6525 -371.59
lfingers 7.12502
lthumb -8.77446 18.2081
rfemur 9.36207 -15.6701 4.82433
rtibia 6.87703
rfoot 14.7144 -7.06219
rtoes 12.8415
lfemur -36.8812 -10.7828 -16.9237
ltibia 78.8469
lfoot 15.6227 4.36056
ltoes -7.03439
706
root 0.286704 1.58301 20.3135 -275.151 -5.03143 -532.118
lowerback 4.3786 -0.361816 -2.34807
upperback 3.04891 -0.677393 -1.92567
thorax 0.679148 -0.410318 -0.634903
lowerneck -15.3824 -4.58302 -2.01047
upperneck 10.4741 -6.46989 4.29802
head 5.89006 -2.96463 1.06018
rclavicle -2.46493e-014 4.32357e-015
rhumerus -41.5967 23.8152 -78.1055
rradius 65.8321
rwrist 3.00226
rhand -6.87977 13.2195
rfingers 7.12502
rthumb 18.9864 -15.8738
lclavicle -2.46493e-014 4.32357e-015
lhumerus -41.1812 -42.0568 83.7242
lradius 68.4397
lwrist -16.1092
lhand -35.202 -371.729
lfingers 7.12502
lthumb -8.3397 18.086
rfemur 9.06909 -15.7445 4.81732
rtibia 7.55431
rfoot 14.3369 -6.85915
rtoes 13.0351
lfemur -36.0075 -10.7888 -17.0278
ltibia 77.2451
lfoot 15.1791 4.54849
ltoes -7.11185
707
root 0.284174 1.58132 20.3063 -275.169 -5.01413 -532.069
lowerback 4.38052 -0.380111 -2.33778
upperback 3.07574 -0.701258 -1.9153
thorax 0.70581 -0.422781 -0.629356
lowerneck -15.31 -4.52721 -1.96813
upperneck 10.3137 -6.38578 4.24094
head 5.82114 -2.92812 1.04725
rclavicle -5.56597e-015 2.35063e-014
rhumerus -41.6686 24.0334 -78.2897
rradius 66.2827
rwrist 2.68326
rhand -6.77351 13.1973
rfingers 7.12502
rthumb 19.0886 -15.886
lclavicle -5.56597e-015 2.35063e-014
lhumerus -41.2354 -42.1651 83.8617
lradius 68.8255
lwrist -16.3457
lhand -34.7851 -371.861
lfingers 7.12502
lthumb -7.93733 17.9698
rfemur 8.74633 -15.8031 4.79462
rtibia 8.22192
rfoot 13.9858 -6.63238
rtoes 13.1188
lfemur -35.1415 -10.788 -17.1441
ltibia 75.6276
lfoot 14.8232 4.83112
ltoes -7.10519
708
root 0.282956 1.57937 20.2976 -275.197 -4.98064 -532.008
lowerback 4.40869 -0.414421 -2.33718
upperback 3.08689 -0.747087 -1.88747
thorax 0.70221 -0.445708 -0.599258
lowerneck -15.1974 -4.46216 -1.94479
upperneck 10.1498 -6.28543 4.18524
head 5.74481 -2.88466 1.04015
rclavicle 4.6118e-014 -2.43511e-015
rhumerus -41.7751 24.2822 -78.4829
rradius 66.7401
rwrist 2.40304
rhand -6.69501 13.1851
rfingers 7.12502
rthumb 19.1641 -15.8907
lclavicle 4.6118e-014 -2.43511e-015
lhumerus -41.3421 -42.2089 84.0131
lradius 69.2281
lwrist -16.6139
lhand -34.3326 -372.033
lfingers 7.12502
lthumb -7.50061 17.814
rfemur 8.45518 -15.8719 4.78898
rtibia 8.85988
rfoot 13.655 -6.43202
rtoes 13.4706
lfemur -34.2517 -10.7644 -17.2401
ltibia 73.9947
lfoot 14.6134 5.03731
ltoes -7.35969
709
root 0.281085 1.57678 20.2894 -275.231 -4.96341 -531.962
lowerback 4.44438 -0.437136 -2.34054
upperback 3.10163 -0.778646 -1.87486
thorax 0.697903 -0.461833 -0.583014
lowerneck -15.0769 -4.40201 -1.89799
upperneck 9.9795 -6.19601 4.12086
head 5.66464 -2.84665 1.02559
rclavicle -3.97569e-015 2.03754e-014
rhumerus -41.8809 24.5399 -78.6797
rradius 67.2146
rwrist 2.07545
rhand -6.60212 13.1464
rfingers 7.12502
rthumb 19.2535 -15.9205
lclavicle -3.97569e-015 2.03754e-014
lhumerus -41.4331 -42.2944 84.1461
lradius 69.6279
lwrist -16.8434
lhand -33.896 -372.133
lfingers 7.12502
lthumb -7.07919 17.7282
rfemur 8.19523 -15.9229 4.77107
rtibia 9.44412
rfoot 13.3627 -6.23928
rtoes 13.6281
lfemur -33.3349 -10.7305 -17.3537
ltibia 72.3458
lfoot 14.4206 5.29358
ltoes -7.59226
